PathFileType	4	(X/Y/Z)	OpenSim_Sub10_CSStiffKnee_Magnet.trc
DataRate	CameraRate	NumFrames	NumMarkers	Units	OrigDataRate	OrigDataStartFrame	OrigNumFrames
100	100	13	8	m	100	1	8174
Frame#	Time	torso_imu_offset_imu	pelvis_imu_offset_imu	tibia_r_imu_offset_imu	femur_r_imu_offset_imu	tibia_l_imu_offset_imu	femur_l_imu_offset_imu	toes_r_imu_offset_imu	toes_l_imu_offset_imu
				X1	Y1	Z1	X2	Y2	Z2	X3	Y3	Z3	X4	Y4	Z4	X5	Y5	Z5	X6	Y6	Z6	X7	Y7	Z7	X8		Y8	Z8	

1	0	-0.95216313	-0.05520420	0.01495519	-0.69131736	0.09547475	-0.63793956	-0.70310535	-0.53085025	-0.27250593	-0.72222251	-0.45663254	-0.02607394	-0.65857686	0.45259607	0.21004645	-0.65052988	0.15628300	0.29028697	-0.62895130	-0.27141298	-0.38747818	-0.69894232	-0.18191567	-0.39632022
2	0.01000000	-0.95775453	-0.05469538	0.01617206	-0.69343765	0.09517597	-0.63974326	-0.70295779	-0.52766101	-0.27887605	-0.71934071	-0.45529399	-0.02120036	-0.65874953	0.45064399	0.21409458	-0.65316487	0.15770585	0.29342000	-0.62703622	-0.27314512	-0.38545367	-0.69929752	-0.18494691	-0.40340197
3	0.02000000	-0.95683048	-0.05796669	0.01736873	-0.69337077	0.09890729	-0.63808117	-0.70514495	-0.52326145	-0.27694807	-0.72130146	-0.45198816	-0.01966628	-0.64959577	0.44448823	0.21277940	-0.66011918	0.15677799	0.29333300	-0.62694814	-0.27160831	-0.38538444	-0.69914450	-0.18644504	-0.39932932
4	0.03000000	-0.95098251	-0.05880306	0.01866243	-0.68836959	0.09581303	-0.64124635	-0.70370878	-0.53196011	-0.27291657	-0.71716127	-0.45608703	-0.01987327	-0.65465280	0.44926610	0.21175424	-0.65724787	0.15717451	0.29771110	-0.62783084	-0.26763846	-0.39021685	-0.69817510	-0.18412654	-0.39874186
5	0.04000000	-0.95086458	-0.06388264	0.01860091	-0.69145700	0.09754917	-0.63963822	-0.70580806	-0.53256094	-0.28450700	-0.71669598	-0.45730152	-0.02057496	-0.65399173	0.45125072	0.21284678	-0.65312822	0.15785398	0.29269544	-0.62585834	-0.26939927	-0.38879836	-0.69475606	-0.18349651	-0.39413011
6	0.05000000	-0.95233309	-0.06213910	0.01898423	-0.69149659	0.09603071	-0.63847186	-0.70664441	-0.52821742	-0.27948446	-0.72032446	-0.45751613	-0.02454581	-0.65252366	0.44721932	0.21460690	-0.65553258	0.15280369	0.29064732	-0.62521583	-0.27472196	-0.38669292	-0.69763716	-0.18478620	-0.39931376
7	0.06000000	-0.95194338	-0.05978533	0.01613585	-0.69245341	0.09833346	-0.64242908	-0.70445249	-0.52829070	-0.27598419	-0.72375461	-0.45644319	-0.01909049	-0.65809494	0.45016444	0.21396092	-0.65854472	0.15477345	0.28902471	-0.62588587	-0.27425770	-0.38647358	-0.69779932	-0.18571993	-0.40222718
8	0.07000000	-0.95276577	-0.06265711	0.02105608	-0.69034185	0.09988435	-0.63804812	-0.69998796	-0.52672620	-0.28286555	-0.71744819	-0.45215546	-0.02324622	-0.65453360	0.45053547	0.21344316	-0.65472525	0.16235100	0.29806929	-0.62933809	-0.27547949	-0.39008717	-0.69823740	-0.18740109	-0.39744289
9	0.08000000	-0.94898515	-0.05763454	0.01868499	-0.69051156	0.10040645	-0.63804025	-0.70299640	-0.52568525	-0.28404959	-0.71981713	-0.45457885	-0.02474711	-0.65571542	0.44979721	0.21787117	-0.65409656	0.15794250	0.29909422	-0.62707873	-0.27145680	-0.38836853	-0.69669874	-0.18550959	-0.39526813
10	0.09000000	-0.95071613	-0.06263795	0.00943388	-0.69579148	0.09771438	-0.63876558	-0.70501594	-0.52594743	-0.28425520	-0.72248963	-0.45687044	-0.02146849	-0.65790727	0.44624499	0.21245248	-0.65582374	0.15124780	0.29031948	-0.62321135	-0.27217562	-0.38943832	-0.69352301	-0.18498555	-0.39683383
11	0.10000000	-0.94902814	-0.06296085	0.01524282	-0.68967246	0.10065278	-0.64144006	-0.70235436	-0.52579904	-0.28159631	-0.72334499	-0.45504586	-0.02158209	-0.65787561	0.44779621	0.21650936	-0.65364693	0.15572365	0.29818351	-0.62575719	-0.26957023	-0.38933458	-0.69797253	-0.18178249	-0.40186846
12	0.11000000	-0.95272318	-0.05670600	0.01870820	-0.68807969	0.10100814	-0.63666494	-0.70681784	-0.52613042	-0.27729435	-0.72530787	-0.45395345	-0.02588426	-0.65574573	0.44746409	0.21644052	-0.65412582	0.15901616	0.29645567	-0.62628087	-0.26977121	-0.38485200	-0.69711281	-0.18064416	-0.39737105
13	0.12000000	-0.95772759	-0.06073987	0.02037781	-0.69435360	0.09876125	-0.63708571	-0.70358245	-0.52453144	-0.27933880	-0.71910475	-0.45450001	-0.02262981	-0.65794514	0.44321563	0.21332612	-0.65602165	0.15654888	0.29734798	-0.62738628	-0.26920510	-0.38620033	-0.69291211	-0.18550265	-0.39506135
